{"title":"TheAbyssSpecialEdition(1989)MPEG-4[DaScubaDude]","uid":14571846,"size":1707418698,"categoryP":"video","categoryS":"movies","magnet":"?xt=urn:btih:da7f858f2a3df642b16fcf25cc0d6c57ba43ec03&amp;dn=TheAbyssSpecialEdition%281989%29MPEG-4%5BDaScubaDude%5D&amp;tr=udp%3A%2F%2Ftracker.leechers-paradise.org%3A6969&amp;tr=udp%3A%2F%2Fzer0day.ch%3A1337&amp;tr=udp%3A%2F%2Fopen.demonii.com%3A1337&amp;tr=udp%3A%2F%2Ftracker.coppersurfer.tk%3A6969&amp;tr=udp%3A%2F%2Fexodus.desync.com%3A6969","seeders":0,"leechers":1,"uploader":"dascuba","files":1,"time":1462808949,"description":"The Abyss (1989)\r\nPG-13 | 2h 25min | Adventure, Drama, Sci-Fi | 9 August 1989 (USA)\r\nA civilian diving team is enlisted to search for a lost nuclear submarine and face danger while encountering an alien aquatic species.\r\nDirector: James Cameron\r\nWriter: James Cameron\r\nStars: Ed Harris, Mary Elizabeth Mastrantonio, Michael Biehn |\r\n\r\nGeneral\r\nComplete name                            : TheAbyssTHEABYSS_Title1.mp4\r\nFormat                                   : MPEG-4\r\nFormat profile                           : Base Media\r\nCodec ID                                 : isom (isom/iso2/avc1/mp41)\r\nFile size                                : 1.59 GiB\r\nDuration                                 : 2h 50mn\r\nOverall bit rate                         : 1 332 Kbps\r\nMovie name                               : THEABYSS\r\nGenre                                    : Science_Fiction\r\nWriting application                      : Lavf54.6.100\r\n\r\nVideo\r\nID                                       : 1\r\nFormat                                   : AVC\r\nFormat/Info                              : Advanced Video Codec\r\nFormat profile                           :   \r\nFormat settings, CABAC                   : No\r\nFormat settings, ReFrames                : 6 frames\r\nCodec ID                                 : avc1\r\nCodec ID/Info                            : Advanced Video Coding\r\nDuration                                 : 2h 50mn\r\nBit rate                                 : 1 197 Kbps\r\nWidth                                    : 720 pixels\r\nHeight                                   : 540 pixels\r\nDisplay aspect ratio                     : 4:3\r\nFrame rate mode                          : Constant\r\nFrame rate                               : 29.970 (30000/1001) fps\r\nColor space                              : YUV\r\nChroma subsampling                       : 4:2:0\r\nBit depth                                : 8 bits\r\nScan type                                : Progressive\r\nBits/(Pixel*Frame)                       : 0.103\r\nStream size                              : 1.43 GiB (90%)\r\n\r\nAudio\r\nID                                       : 2\r\nFormat                                   : AAC\r\nFormat/Info                              : Advanced Audio Codec\r\nFormat profile                           : LC\r\nCodec ID                                 : 40\r\nDuration                                 : 2h 50mn\r\nBit rate mode                            : Constant\r\nBit rate                                 : 128 Kbps\r\nChannel(s)                               : 2 channels\r\nChannel positions                        : Front: L R\r\nSampling rate                            : 44.1 KHz\r\nFrame rate                               : 43.066 fps (1024 spf)\r\nCompression mode                         : Lossy\r\nStream size                              : 156 MiB (10%)\r\nDefault                                  : Yes\r\nAlternate group                          : 1","torrent":{"xt":"urn:btih:da7f858f2a3df642b16fcf25cc0d6c57ba43ec03","amp;dn":"TheAbyssSpecialEdition%281989%29MPEG-4%5BDaScubaDude%5D","amp;tr":["udp%3A%2F%2Ftracker.leechers-paradise.org%3A6969","udp%3A%2F%2Fzer0day.ch%3A1337","udp%3A%2F%2Fopen.demonii.com%3A1337","udp%3A%2F%2Ftracker.coppersurfer.tk%3A6969","udp%3A%2F%2Fexodus.desync.com%3A6969"],"infoHash":"da7f858f2a3df642b16fcf25cc0d6c57ba43ec03","infoHashBuffer":{"type":"Buffer","data":[218,127,133,143,42,61,246,66,177,111,207,37,204,13,108,87,186,67,236,3]},"announce":[],"urlList":[]}}